<?xml version="1.0" encoding="UTF-8" standalone="no"?>
<!-- Created with Inkscape (http://www.inkscape.org/) -->

<svg
   xmlns:dc="http://purl.org/dc/elements/1.1/"
   xmlns:cc="http://creativecommons.org/ns#"
   xmlns:rdf="http://www.w3.org/1999/02/22-rdf-syntax-ns#"
   xmlns:svg="http://www.w3.org/2000/svg"
   xmlns="http://www.w3.org/2000/svg"
   xmlns:sodipodi="http://sodipodi.sourceforge.net/DTD/sodipodi-0.dtd"
   xmlns:inkscape="http://www.inkscape.org/namespaces/inkscape"
   width="200"
   height="80"
   viewBox="0 0 200 80"
   id="svg2"
   version="1.1"
   inkscape:version="0.91 r13725"
   sodipodi:docname="sai-logo.svg">
  <defs
     id="defs4">
    <pattern
       y="0"
       x="0"
       height="6"
       width="6"
       patternUnits="userSpaceOnUse"
       id="EMFhbasepattern" />
  </defs>
  <sodipodi:namedview
     id="base"
     pagecolor="#ffffff"
     bordercolor="#666666"
     borderopacity="1.0"
     inkscape:pageopacity="0.0"
     inkscape:pageshadow="2"
     inkscape:zoom="5.6"
     inkscape:cx="106.5801"
     inkscape:cy="31.161123"
     inkscape:document-units="px"
     inkscape:current-layer="layer1"
     showgrid="false"
     units="px"
     height="80px"
     inkscape:snap-bbox="true"
     inkscape:bbox-paths="true"
     inkscape:bbox-nodes="true"
     inkscape:window-width="1920"
     inkscape:window-height="1017"
     inkscape:window-x="-8"
     inkscape:window-y="-8"
     inkscape:window-maximized="1">
    <inkscape:grid
       type="xygrid"
       id="grid3595" />
  </sodipodi:namedview>
  <metadata
     id="metadata7">
    <rdf:RDF>
      <cc:Work
         rdf:about="">
        <dc:format>image/svg+xml</dc:format>
        <dc:type
           rdf:resource="http://purl.org/dc/dcmitype/StillImage" />
        <dc:title></dc:title>
      </cc:Work>
    </rdf:RDF>
  </metadata>
  <g
     inkscape:label="Layer 1"
     inkscape:groupmode="layer"
     id="layer1"
     transform="translate(0,-972.3622)">
    <g
       style="font-style:normal;font-variant:normal;font-weight:400;font-size:10.47039032px;line-height:125%;font-family:'Alte Haas Grotesk Bold';text-align:start;letter-spacing:0px;word-spacing:0px;text-anchor:start;fill:#000000;fill-opacity:1;stroke:none"
       id="text3341" />
    <path
       id="path3505"
       style="fill:#0072bc;fill-opacity:1;fill-rule:evenodd;stroke:none"
       d="m 32.413642,1023.0548 45.057632,0 0,0 0.676235,-0.9517 0.676242,-0.9517 -46.535361,0 -4.583406,0 0,0 0.801464,0.9517 0.951759,0.9517 2.955435,0 z m -3.6317,-3.7819 19.961619,0 0,0 -0.951761,-0.2755 -1.076981,-0.5259 -0.801417,-0.551 -0.826501,-0.5259 -16.455225,0 -2.830183,0 0,0 0.826502,1.8783 2.153947,0 z m -3.506424,-3.782 18.609142,0 0,0 -0.400747,-0.9517 -0.150259,-1.0519 -18.333654,0 0,0.2503 0,0 0.125305,0.5511 0.150267,1.2022 0,0 z m 47.211603,11.4712 0,0 1.602957,-0.9518 1.3525,-1.077 -43.830431,0 0,0 1.3525,1.077 1.753178,0.9518 37.769296,0 z m -19.435673,3.7819 0,0 3.781989,-0.1503 3.781912,-0.4008 3.631707,-0.526 1.75317,-0.4006 1.753223,-0.4259 -28.201715,0 0,0 2.053726,0.4259 1.878453,0.5259 3.631653,0.526 3.381241,0.2755 2.554641,0.1503 0,0 z m 27.250031,-17.2567 -19.961649,0 0,0 0.400748,0.3757 0.275518,0.4258 0.125305,0.526 0.125307,0.5509 0,0 0,0.1253 19.034918,0 0,0 0,-1.7532 0,0 0,-0.2503 0,0 z m -22.516281,5.7856 21.84004,0 0,0 0.275495,-0.9516 0.250357,-0.9267 -19.410613,0 0,0 -0.525976,0.5259 -0.676257,0.551 -0.826509,0.5259 -0.926638,0.2755 0,0 z m 16.029386,-32.50957 -45.032642,0 0,0 -0.826501,0.95178 -0.525975,0.9266 46.535384,0 4.458177,0 0,0 -0.701296,-0.9266 -0.926722,-0.95178 -2.980425,0 z m 3.531431,3.78192 -19.986602,0 0,0 1.076912,0.27547 0.951753,0.526 0.951752,0.40069 0.801495,0.67626 16.480208,0 2.805175,0 0,0 -0.80147,-1.87842 -2.279223,0 z m 3.63173,3.78186 -18.609172,0 0,0 0.275518,0.95181 0.250357,1.05192 18.208425,0 0,-0.25034 0,0 0,-0.70128 -0.125306,-1.05192 0,0 z m -47.211626,-11.47097 0,0 -1.602957,0.92669 -1.502768,1.10203 43.980722,0 0,0 -1.502797,-1.10203 -1.602958,-0.92669 -37.769242,0 z m 19.435619,-3.78194 0,0 -3.781912,0.1253 -3.78192,0.40074 -3.656759,0.55099 -1.753225,0.40075 -1.728131,0.42578 28.051448,0 0,0 -1.903513,-0.55101 -2.003635,-0.40075 -3.656761,-0.55101 -3.230874,-0.27549 -2.554718,-0.1253 0,0 z m -27.249977,17.25664 19.961641,0 0,0 -0.400724,-0.40069 -0.275511,-0.40078 -0.150266,-0.52601 -0.125306,-0.55103 0,0 0,-0.12522 -19.009889,0 0,0 0,1.75319 0,0 0,0.25034 0,0 z m 22.391076,-5.78559 -21.865109,0 0,0 -0.27551,0.9267 -0.125307,0.95172 19.285408,0 0,0 0.551005,-0.52591 0.801417,-0.55104 0.801495,-0.526 0.826523,-0.27547 0,0 z m -21.99033,7.68913 0,0 0.275488,0.95172 0.400747,0.9268 31.683101,0 0,0 -4.708642,-1.07704 -3.506394,-0.80148 -24.1443,0 z m 1.753194,3.75682 0,0 0.801493,0.9518 0.826502,0.9517 42.753425,0 0,0 -2.704906,-0.9517 -2.980526,-0.9518 -38.695988,0 z m 51.920283,9.5927 0,0 -0.250356,-0.9518 -0.425801,-0.9517 -31.833414,0 0,0 4.733742,1.102 3.506401,0.8015 24.269529,0 z m -46.259865,-5.8108 0,0 2.704929,1.1021 2.955457,0.9267 38.846233,0 0,0 -0.801464,-1.077 -0.951706,-0.9518 -42.753449,0 z m 110.752861,21.0637 30.48102,0 0,-1.9035 -31.30712,0 0.8261,1.9035 z m 1.75326,3.2309 28.72776,0 0,-1.3524 -29.67909,0 0.95133,1.3524 z m 1.6031,-37.64403 19.28561,0 0,-1.87842 -19.28561,0 0,1.87842 z m 0,3.90717 19.28561,0 0,-2.00373 -19.28561,0 0,2.00373 z m -4.98435,26.72396 32.10901,0 0,-1.9034 -33.06034,0 0.95133,1.9034 z m -2.57935,-40.19866 0,2.02872 34.68836,0 0,-2.02872 -34.68836,0 z M 175,979.60017 l -34.68836,0 0,1.37751 34.68836,0 0,-1.37751 z m -34.68836,9.04154 34.68836,0 0,-1.87838 -34.68836,0 0,1.87838 z m 7.5637,11.47119 19.28561,0 0,-1.87852 -19.28561,0 0,1.87852 z m 0,15.2528 19.28561,0 0,-1.8784 -19.28561,0 0,1.8784 z m 0,3.9072 19.28561,0 0,-2.0287 -19.28561,0 0,2.0287 z m 0,-7.689 19.28561,0 0,-1.9035 -19.28561,0 0,1.9035 z m 0,-7.6892 19.28561,0 0,-1.9035 -19.28561,0 0,1.9035 z m 0,3.9072 19.28561,0 0,-2.0288 -19.28561,0 0,2.0288 z m -25.89725,-22.91704 -0.80191,-2.02872 -22.140308,0 -0.926444,2.02872 23.868662,0 z m -37.343683,30.48084 50.692903,0 -0.80118,-1.8784 -49.09023,0 -0.801493,1.8784 z m 30.881453,-3.7818 18.20835,0 -0.8261,-1.9035 -18.05821,0 0.67596,1.9035 z m -1.35192,-3.782 17.93228,0 -0.95134,-2.0288 -17.65761,0 0.67667,2.0288 z m -7.68962,-2.0288 -17.682295,0 -0.801417,2.0288 17.682502,0 0.80121,-2.0288 z m 1.35264,-3.7819 -17.281711,0 -0.951753,1.9035 17.557494,0 0.67597,-1.9035 z m 4.98434,1.9035 17.53166,0 -0.80118,-1.9035 -17.40717,0 0.67669,1.9035 z m -31.708326,19.1601 57.605586,0 -0.8261,-1.9034 -55.827734,0 -0.951752,1.9034 z m 1.753148,-3.7819 54.224408,0 -0.80117,-2.0287 -52.596714,0 -0.826524,2.0287 z m 26.448718,-21.03852 -17.131573,0 -0.801487,1.87852 17.25637,0 0.67669,-1.87852 z m 10.11812,-18.63421 -18.75909,0 -0.801191,1.37751 20.362171,0 -0.80189,-1.37751 z m -14.45143,30.08023 -17.807446,0 -0.92672,1.9035 18.058206,0 0.67596,-1.9035 z m 17.28193,20.3873 19.83634,0 -0.95206,-1.3524 -19.56024,0 0.67596,1.3524 z m -2.02861,-5.1344 0.67596,1.9035 19.56098,0 -0.95133,-1.9035 -19.28561,0 z m -23.743418,-36.29159 27.124658,0 -0.80189,-1.87838 -25.521575,0 -0.801193,1.87838 z m -16.179953,36.29159 -0.80147,1.9035 19.010019,0 0.675956,-1.9035 -18.884505,0 z m 31.157181,-24.8204 17.2563,0 -0.95132,-1.87852 -16.98095,0 0.67597,1.87852 z m -16.730675,-7.68923 30.606455,0 -0.92717,-1.87842 -28.85283,0 -0.826455,1.87842 z m -1.602957,3.90717 33.837402,0 -0.8019,-2.00373 -32.234039,0 -0.801463,2.00373 z m -14.85229,33.73686 18.75943,0 0.675964,-1.3524 -18.608863,0 -0.826531,1.3524 z m 96.369382,10.4729 0,0.7787 q -0.45449,-0.2174 -0.85759,-0.3241 -0.40311,-0.1067 -0.77855,-0.1067 -0.6521,0 -1.00777,0.2529 -0.35173,0.2529 -0.35173,0.7193 0,0.3912 0.23316,0.5928 0.23713,0.1976 0.89317,0.32 l 0.48214,0.099 q 0.89317,0.17 1.31603,0.6008 0.42683,0.4268 0.42683,1.1461 0,0.8576 -0.577,1.3002 -0.57304,0.4426 -1.68357,0.4426 -0.41892,0 -0.89317,-0.094 -0.47029,-0.095 -0.97615,-0.2805 l 0,-0.822 q 0.4861,0.2726 0.95245,0.411 0.46633,0.1383 0.91687,0.1383 0.6837,0 1.0552,-0.2688 0.37149,-0.2687 0.37149,-0.7666 0,-0.4348 -0.26875,-0.6798 -0.26478,-0.245 -0.8734,-0.3676 l -0.48609,-0.094 q -0.89317,-0.1779 -1.29232,-0.5573 -0.39916,-0.3793 -0.39916,-1.0551 0,-0.7825 0.54933,-1.233 0.55329,-0.4506 1.52154,-0.4506 0.41496,0 0.84574,0.075 0.43076,0.074 0.8813,0.2253 z m -9.30311,-0.1936 4.99143,0 0,0.6719 -2.09458,0 0,5.2286 -0.80226,0 0,-5.2286 -2.09459,0 0,-0.6719 z m -5.23645,0 1.07496,0 2.61625,4.9361 0,-4.9361 0.7746,0 0,5.9005 -1.07496,0 -2.61624,-4.9362 0,4.9362 -0.77461,0 0,-5.9005 z m -5.12184,0 3.73073,0 0,0.6719 -2.93242,0 0,1.7468 2.8099,0 0,0.6718 -2.8099,0 0,2.1381 3.00356,0 0,0.6719 -3.80187,0 0,-5.9005 z m -6.98722,0 1.18957,0 1.50573,4.0153 1.51363,-4.0153 1.18956,0 0,5.9005 -0.77854,0 0,-5.1812 -1.52154,4.0469 -0.80227,0 -1.52153,-4.0469 0,5.1812 -0.77461,0 0,-5.9005 z m -6.01895,0 0.80226,0 0,3.5845 q 0,0.9486 0.34383,1.3674 0.34382,0.415 1.11446,0.415 0.76671,0 1.11054,-0.415 0.34382,-0.4188 0.34382,-1.3674 l 0,-3.5845 0.80227,0 0,3.6833 q 0,1.154 -0.57304,1.7429 -0.5691,0.5888 -1.68359,0.5888 -1.11842,0 -1.69146,-0.5888 -0.56909,-0.5889 -0.56909,-1.7429 l 0,-3.6833 z m -2.73876,3.134 q 0.25688,0.087 0.49795,0.3715 0.24503,0.2846 0.49006,0.7825 l 0.81017,1.6125 -0.8576,0 -0.75483,-1.5137 q -0.29246,-0.5929 -0.5691,-0.7865 -0.27268,-0.1936 -0.74693,-0.1936 l -0.86945,0 0,2.4938 -0.79832,0 0,-5.9005 1.80213,0 q 1.01172,0 1.50968,0.4229 0.49796,0.4228 0.49796,1.2765 0,0.5572 -0.26084,0.9248 -0.25687,0.3676 -0.75088,0.5098 z m -1.99973,-2.4779 0,2.0946 1.00381,0 q 0.577,0 0.86945,-0.2649 0.29641,-0.2687 0.29641,-0.7864 0,-0.5177 -0.29641,-0.7786 -0.29245,-0.2647 -0.86945,-0.2647 l -1.00381,0 z m -6.56435,-0.6561 4.99143,0 0,0.6719 -2.09458,0 0,5.2286 -0.80227,0 0,-5.2286 -2.09458,0 0,-0.6719 z m -0.7825,0.1936 0,0.7787 q -0.45449,-0.2174 -0.85759,-0.3241 -0.40311,-0.1067 -0.77856,-0.1067 -0.65208,0 -1.00777,0.2529 -0.35173,0.2529 -0.35173,0.7193 0,0.3912 0.23318,0.5928 0.23711,0.1976 0.89315,0.32 l 0.48214,0.099 q 0.89317,0.17 1.31605,0.6008 0.42681,0.4268 0.42681,1.1461 0,0.8576 -0.577,1.3002 -0.57305,0.4426 -1.68356,0.4426 -0.41892,0 -0.89317,-0.094 -0.47029,-0.095 -0.97615,-0.2805 l 0,-0.822 q 0.4861,0.2726 0.95244,0.411 0.46634,0.1383 0.91688,0.1383 0.6837,0 1.05518,-0.2688 0.3715,-0.2687 0.3715,-0.7666 0,-0.4348 -0.26874,-0.6798 -0.26479,-0.245 -0.8734,-0.3676 l -0.4861,-0.094 q -0.89316,-0.1779 -1.29233,-0.5573 -0.39915,-0.3793 -0.39915,-1.0551 0,-0.7825 0.54934,-1.233 0.55328,-0.4506 1.52154,-0.4506 0.41496,0 0.84572,0.075 0.43079,0.074 0.88132,0.2253 z m -9.5916,-0.1936 1.07495,0 2.61625,4.9361 0,-4.9361 0.7746,0 0,5.9005 -1.07495,0 -2.61626,-4.9362 0,4.9362 -0.77459,0 0,-5.9005 z m -2.38704,0 0.79831,0 0,5.9005 -0.79831,0 0,-5.9005 z m -3.87652,0.1936 0,0.7787 q -0.45449,-0.2174 -0.85759,-0.3241 -0.40312,-0.1067 -0.77856,-0.1067 -0.65209,0 -1.00777,0.2529 -0.35172,0.2529 -0.35172,0.7193 0,0.3912 0.23316,0.5928 0.23712,0.1976 0.89316,0.32 l 0.48215,0.099 q 0.89317,0.17 1.31603,0.6008 0.42682,0.4268 0.42682,1.1461 0,0.8576 -0.57699,1.3002 -0.57305,0.4426 -1.68358,0.4426 -0.41892,0 -0.89316,-0.094 -0.4703,-0.095 -0.97616,-0.2805 l 0,-0.822 q 0.48611,0.2726 0.95246,0.411 0.46633,0.1383 0.91686,0.1383 0.68371,0 1.0552,-0.2688 0.3715,-0.2687 0.3715,-0.7666 0,-0.4348 -0.26875,-0.6798 -0.26479,-0.245 -0.87341,-0.3676 l -0.48609,-0.094 q -0.89316,-0.1779 -1.29232,-0.5573 -0.39915,-0.3793 -0.39915,-1.0551 0,-0.7825 0.54933,-1.233 0.55329,-0.4506 1.52153,-0.4506 0.41497,0 0.84574,0.075 0.43077,0.074 0.88131,0.2253 z m -5.92412,-0.1936 0.79832,0 0,5.9005 -0.79832,0 0,-5.9005 z m -1.60056,0.1936 0,0.7787 q -0.45449,-0.2174 -0.8576,-0.3241 -0.40311,-0.1067 -0.77856,-0.1067 -0.65208,0 -1.00777,0.2529 -0.35173,0.2529 -0.35173,0.7193 0,0.3912 0.23318,0.5928 0.23711,0.1976 0.89316,0.32 l 0.48214,0.099 q 0.89316,0.17 1.31604,0.6008 0.42681,0.4268 0.42681,1.1461 0,0.8576 -0.57699,1.3002 -0.57306,0.4426 -1.68357,0.4426 -0.41892,0 -0.89316,-0.094 -0.4703,-0.095 -0.97616,-0.2805 l 0,-0.822 q 0.48611,0.2726 0.95244,0.411 0.46635,0.1383 0.91688,0.1383 0.6837,0 1.05519,-0.2688 0.37149,-0.2687 0.37149,-0.7666 0,-0.4348 -0.26874,-0.6798 -0.26478,-0.245 -0.8734,-0.3676 l -0.4861,-0.094 q -0.89316,-0.1779 -1.29232,-0.5573 -0.39915,-0.3793 -0.39915,-1.0551 0,-0.7825 0.54933,-1.233 0.55328,-0.4506 1.52154,-0.4506 0.41497,0 0.84573,0.075 0.43078,0.074 0.88132,0.2253 z m -9.295219,-0.1936 0.857592,0 1.636152,2.4265 1.624285,-2.4265 0.8576,0 -2.08668,3.0905 0,2.81 -0.802269,0 0,-2.81 -2.08668,-3.0905 z m -3.695156,0 0.798317,0 0,5.2286 2.873131,0 0,0.6719 -3.671448,0 0,-5.9005 z m -3.560782,0.7865 -1.082865,2.9363 2.169671,0 -1.086806,-2.9363 z m -0.450538,-0.7865 0.905017,0 2.248712,5.9005 -0.829926,0 -0.537478,-1.5137 -2.659724,0 -0.537478,1.5137 -0.841784,0 2.252661,-5.9005 z m -7.576062,0 1.074955,0 2.616251,4.9361 0,-4.9361 0.774603,0 0,5.9005 -1.074957,0 -2.616252,-4.9362 0,4.9362 -0.7746,0 0,-5.9005 z m -3.56079,0.7865 -1.082858,2.9363 2.169669,0 -1.086811,-2.9363 z m -0.450532,-0.7865 0.905017,0 2.248712,5.9005 -0.829929,0 -0.537477,-1.5137 -2.659724,0 -0.537478,1.5137 -0.841785,0 2.252664,-5.9005 z m -5.330085,0.4546 0,0.8417 q -0.403109,-0.3755 -0.861545,-0.5612 -0.454485,-0.1857 -0.968251,-0.1857 -1.011722,0 -1.5492,0.6204 -0.537477,0.6165 -0.537477,1.7863 0,1.1659 0.537477,1.7864 0.537478,0.6166 1.5492,0.6166 0.513766,0 0.968251,-0.1858 0.458436,-0.1858 0.861545,-0.5613 l 0,0.834 q -0.418917,0.2845 -0.88921,0.4268 -0.466341,0.1422 -0.98801,0.1422 -1.339742,0 -2.11039,-0.818 -0.770649,-0.822 -0.770649,-2.2409 0,-1.4227 0.770649,-2.2407 0.770648,-0.8221 2.11039,-0.8221 0.529574,0 0.995914,0.1422 0.470293,0.1385 0.881306,0.4191 z m -6.805413,-0.4546 0.798312,0 0,5.9005 -0.798312,0 0,-5.9005 z m -4.663409,0 3.390851,0 0,0.6719 -2.592539,0 0,1.7389 2.339608,0 0,0.6718 -2.339608,0 0,2.8179 -0.798312,0 0,-5.9005 z m -2.387034,0 0.798313,0 0,5.9005 -0.798313,0 0,-5.9005 z m -5.766028,0 4.991427,0 0,0.6719 -2.094581,0 0,5.2286 -0.802265,0 0,-5.2286 -2.094581,0 0,-0.6719 z m -5.236455,0 1.074956,0 2.616251,4.9361 0,-4.9361 0.7746,0 0,5.9005 -1.074955,0 -2.616252,-4.9362 0,4.9362 -0.7746,0 0,-5.9005 z m -5.121844,0 3.730726,0 0,0.6719 -2.932415,0 0,1.7468 2.809902,0 0,0.6718 -2.809902,0 0,2.1381 3.003552,0 0,0.6719 -3.801863,0 0,-5.9005 z m -2.387034,0 0.798313,0 0,5.9005 -0.798313,0 0,-5.9005 z m -1.24094,0.4546 0,0.8417 q -0.403109,-0.3755 -0.861546,-0.5612 -0.454484,-0.1857 -0.96825,-0.1857 -1.011722,0 -1.5492,0.6204 -0.537478,0.6165 -0.537478,1.7863 0,1.1659 0.537478,1.7864 0.537478,0.6166 1.5492,0.6166 0.513766,0 0.96825,-0.1858 0.458437,-0.1858 0.861546,-0.5613 l 0,0.834 q -0.418918,0.2845 -0.88921,0.4268 -0.466341,0.1422 -0.98801,0.1422 -1.339742,0 -2.110391,-0.818 -0.770648,-0.822 -0.770648,-2.2409 0,-1.4227 0.770648,-2.2407 0.770649,-0.8221 2.110391,-0.8221 0.529573,0 0.995914,0.1422 0.470293,0.1385 0.881306,0.4191 z m -6.01896,-0.261 0,0.7787 q -0.454485,-0.2174 -0.857593,-0.3241 -0.403108,-0.1067 -0.778552,-0.1067 -0.652086,0 -1.007771,0.2529 -0.351731,0.2529 -0.351731,0.7193 0,0.3912 0.233171,0.5928 0.237122,0.1976 0.893161,0.32 l 0.482148,0.099 q 0.893161,0.17 1.31603,0.6008 0.426822,0.4268 0.426822,1.1461 0,0.8576 -0.576998,1.3002 -0.573046,0.4426 -1.68357,0.4426 -0.418916,0 -0.893162,-0.094 -0.470293,-0.095 -0.976154,-0.2805 l 0,-0.822 q 0.486101,0.2726 0.952443,0.411 0.466339,0.1383 0.916873,0.1383 0.683702,0 1.055195,-0.2688 0.371492,-0.2687 0.371492,-0.7666 0,-0.4348 -0.268739,-0.6798 -0.264787,-0.245 -0.873402,-0.3676 l -0.486101,-0.094 q -0.893161,-0.1779 -1.292317,-0.5573 -0.399157,-0.3793 -0.399157,-1.0551 0,-0.7825 0.549334,-1.233 0.553287,-0.4506 1.521536,-0.4506 0.414964,0 0.845737,0.075 0.430772,0.074 0.881305,0.2253 z"
       inkscape:connector-curvature="0" />
  </g>
</svg>
